# xmcd CD database file generated by OrangeCD 5.2
#
# Track frame offsets:
#	150
#	10221
#	22594
#	33793
#	46941
#	58622
#	69958
#	83405
#	95876
#	107578
#
# Disc length: 1625 seconds
#
# Revision: 0
# Processed by: cddbd v1.5.1PL0 Copyright (c) Steve Scherf et al.
# Submitted via: OrangeCD 5.2
#
DISCID=6706570a
DTITLE=Johnny Cash - A Thing Called Love
DYEAR=1972
DGENRE=Country
TTITLE0=Kate
TTITLE1=Melva's Wine
TTITLE2=A Thing Called Love
TTITLE3=I Promise You
TTITLE4=Papa Was A Good Man
TTITLE5=Tear Stained Letter
TTITLE6=Mississippi Sand
TTITLE7=Daddy
TTITLE8=Arkansas Lovin Man
TTITLE9=The Miracle Man
EXTD=
EXTT0=
EXTT1=
EXTT2=
EXTT3=
EXTT4=
EXTT5=
EXTT6=
EXTT7=
EXTT8=
EXTT9=
PLAYORDER=
